PathFileType	4	(X/Y/Z)	s02c0103.trc
DataRate	CameraRate	NumFrames	NumMarkers	Units	OrigDataRate	OrigDataStartFrame	OrigNumFrames
200	200	4	50	mm	200	750	2000
Frame#	Time	racr			lacr			c7			jug			rlel			rdr			llel			ldr			s2			lic			ric			lasi			rasi			rpsi			lpsi			rgt			lgt			rth1			rth2			rth3			rth4			rlfc			rmfc			rsh1			rsh2			rsh3			rsh4			rlmal			rmmal			rtoe			rmt5			rmt1			lth1			lth2			lth4			lth3			llfc			lmfc			lsh1			lsh2			lsh3			lsh4			llmal			lmmal			lcal			ltoe			lmt5			SBIKE			LBIKE			RBIKE			
		X1	Y1	Z1	X2	Y2	Z2	X3	Y3	Z3	X4	Y4	Z4	X5	Y5	Z5	X6	Y6	Z6	X7	Y7	Z7	X8	Y8	Z8	X9	Y9	Z9	X10	Y10	Z10	X11	Y11	Z11	X12	Y12	Z12	X13	Y13	Z13	X14	Y14	Z14	X15	Y15	Z15	X16	Y16	Z16	X17	Y17	Z17	X18	Y18	Z18	X19	Y19	Z19	X20	Y20	Z20	X21	Y21	Z21	X22	Y22	Z22	X23	Y23	Z23	X24	Y24	Z24	X25	Y25	Z25	X26	Y26	Z26	X27	Y27	Z27	X28	Y28	Z28	X29	Y29	Z29	X30	Y30	Z30	X31	Y31	Z31	X32	Y32	Z32	X33	Y33	Z33	X34	Y34	Z34	X35	Y35	Z35	X36	Y36	Z36	X37	Y37	Z37	X38	Y38	Z38	X39	Y39	Z39	X40	Y40	Z40	X41	Y41	Z41	X42	Y42	Z42	X43	Y43	Z43	X44	Y44	Z44	X45	Y45	Z45	X46	Y46	Z46	X47	Y47	Z47	X48	Y48	Z48	X49	Y49	Z49	X50	Y50	Z50	
750	3.7500	515.699031	1246.780138	-140.704001	539.912693	1236.853726	-476.653293	516.301746	1276.869228	-316.200056	459.915072	1149.437333	-314.202344	518.483180	974.585392	-85.957196	698.187307	852.374344	-135.186356	516.150327	972.000340	-590.503164	695.392519	842.050292	-525.104278	-4.826663	1139.519860	-290.257178	123.438053	1098.311411	-484.853356	108.893588	1118.024396	-192.437064	163.354727	1064.376983	-454.588736	160.357129	1102.145245	-228.779936	2.685817	1152.921484	-305.589627	19.680159	1153.071562	-393.826488	87.637917	1048.758070	-156.663775	75.566573	1003.137074	-509.093547	179.894831	1015.690347	-147.442321	265.755878	996.535583	-150.899479	331.099912	946.387617	-126.565641	279.800559	1019.710109	-177.915901	440.126805	843.541679	-158.036112	433.968496	823.733827	-268.146565	432.381834	729.571372	-140.343532	422.801719	642.233303	-159.632530	375.728902	570.054063	-153.319221	433.763554	641.160645	-196.886884	323.022945	463.824578	-155.572271	327.127766	481.589275	-238.865085	538.106345	439.661522	-193.994351	433.691794	409.785123	-132.141258	455.625370	427.890246	-241.698371	192.336834	919.502468	-518.741092	265.545744	872.726352	-515.769949	289.904812	895.119246	-500.987060	304.918045	792.498663	-512.572197	362.648473	712.212586	-490.284913	360.653205	683.661446	-384.170088	315.870280	620.070746	-510.084042	287.621977	539.767822	-495.589591	219.799015	480.262401	-498.621627	305.474134	530.958473	-459.578006	150.566065	398.647948	-488.653179	166.893091	384.423567	-412.226819	76.680969	407.204990	-446.495020	246.490938	175.355815	-437.707339	164.009941	240.126915	-503.370974	-129.095383	869.002908	-315.709371	32.736852	81.737830	-515.335427	32.676485	82.116354	-115.551832	
751	3.7550	515.403108	1246.571497	-140.063591	540.005221	1236.945804	-475.936132	516.187464	1276.764705	-315.546604	459.760495	1149.317270	-313.692945	518.086586	974.225269	-86.210608	698.162087	852.397401	-135.194943	516.250421	972.274417	-590.157347	695.272211	842.093124	-524.987043	-4.881460	1139.760977	-290.226087	122.986908	1097.893280	-484.508540	109.770180	1117.180073	-191.650028	162.836938	1063.949975	-454.100151	161.098459	1101.456244	-228.364682	2.718313	1151.346767	-304.626318	19.761569	1151.831370	-393.136722	88.639188	1047.679153	-156.251299	75.589223	1002.914721	-508.996001	180.894301	1013.531898	-147.267825	266.492593	993.070141	-150.960997	331.015452	941.791370	-126.893539	280.744294	1016.089333	-177.956374	438.720536	837.738196	-158.862585	431.760557	817.848335	-268.425436	432.073636	723.590670	-140.964234	423.956486	636.167774	-159.846644	378.047108	563.152430	-153.377638	434.726434	635.136841	-197.236427	326.777170	455.949241	-155.327804	330.541332	473.579772	-238.611381	542.090611	431.268136	-194.128796	437.707463	401.704604	-132.013446	459.496359	419.761579	-241.642959	193.314201	920.719699	-518.586592	267.365706	874.925110	-515.689874	291.235613	897.645277	-500.459451	307.803724	795.425808	-512.737570	366.134780	716.079093	-490.439637	363.723816	687.004178	-384.538265	318.527946	624.167431	-510.139398	288.567873	544.464943	-495.396568	219.699284	486.237851	-498.658109	306.170044	535.486794	-459.284359	148.663700	406.587185	-488.653459	165.097044	392.088790	-412.342069	74.598748	416.199197	-446.728572	242.344858	182.427196	-437.630402	160.546674	247.975975	-503.325547	-129.090111	869.000367	-315.685773	32.730901	81.731021	-515.339283	32.679513	82.096785	-115.561401	
752	3.7600	515.251422	1246.353654	-139.512497	540.107694	1237.037880	-475.275247	516.179917	1276.662915	-314.915718	459.591934	1149.253562	-313.202259	517.717966	973.861136	-86.384969	698.156179	852.420666	-135.193752	516.382146	972.536671	-589.921332	695.160039	842.060547	-525.062198	-4.933358	1140.000581	-290.200440	122.423155	1097.717458	-484.163816	110.406330	1116.450063	-191.080331	162.539891	1063.834922	-453.799861	161.800383	1100.928948	-227.814056	4.893143	1149.038450	-303.294624	19.622496	1150.816781	-392.193405	89.562673	1046.405256	-155.898547	75.597018	1002.872764	-508.803275	181.882522	1011.450643	-146.927236	267.092436	989.487212	-150.951910	330.724372	937.255951	-127.070444	281.596152	1012.549580	-177.720941	437.052542	831.908402	-159.598838	429.488436	812.027053	-269.088583	431.525503	717.529280	-141.536030	424.558986	630.146493	-159.655552	379.933339	556.231448	-153.289317	435.521996	628.998123	-197.465313	330.352440	448.114645	-155.146263	334.031555	465.802489	-238.489095	545.873197	422.400888	-194.233561	441.170473	393.504361	-131.997961	463.141894	411.425909	-241.615841	194.074199	921.984067	-518.443937	268.825089	877.438864	-515.554764	292.238505	900.299469	-499.737541	310.488117	798.447622	-513.028298	370.060439	719.800218	-490.726801	366.719348	690.442023	-385.036904	321.200423	628.459545	-510.223266	289.527934	549.470975	-495.341784	219.505894	492.694800	-498.632572	306.838242	540.435613	-459.001649	146.814141	414.715661	-488.814587	163.001008	400.305971	-412.476300	72.840332	424.529643	-446.644503	238.808871	190.020042	-437.781090	157.405046	256.058339	-503.334599	-129.090730	869.001082	-315.617958	32.739362	81.755540	-515.335115	32.671805	82.112263	-115.586991	
753	3.7650	515.231815	1246.111215	-138.996100	540.297138	1237.107371	-474.614498	516.305965	1276.549152	-314.355818	459.474976	1149.214510	-312.781794	517.437987	973.511728	-86.466792	698.198264	852.423443	-135.148311	516.527681	972.821036	-589.753323	695.039206	842.101090	-525.186229	-4.982412	1140.237939	-290.180353	122.069614	1097.627568	-483.609906	111.114788	1115.848743	-190.283767	162.314238	1063.930665	-453.389999	162.596771	1100.579016	-227.110140	5.139938	1147.972750	-302.291277	19.993922	1150.105817	-391.371721	90.284077	1045.373637	-155.717129	75.592682	1003.067588	-508.537675	182.833567	1009.465063	-146.492148	267.717124	985.982705	-150.580448	330.300391	932.508452	-127.182408	282.517061	1008.893796	-177.381012	435.107886	825.954054	-160.256136	427.130872	805.903080	-269.026938	430.630906	711.514821	-141.912729	425.150518	624.061243	-159.618770	381.541949	549.487271	-153.244591	436.092791	622.871970	-197.527487	333.619337	440.387899	-155.065999	337.177940	457.964058	-238.355313	549.384994	413.300071	-194.312475	444.410247	385.239271	-131.891280	466.507625	402.891137	-241.550948	194.639114	923.406643	-518.300712	270.036087	880.066344	-515.375621	292.978350	903.103933	-498.938462	313.044422	801.755849	-513.447674	373.818419	723.754433	-490.930542	369.954505	694.551475	-385.279784	323.854868	633.067774	-510.417440	290.565408	554.771591	-495.255854	219.486922	499.329392	-498.806204	307.591118	545.512685	-458.989406	145.028710	423.021289	-488.986401	161.402994	408.447942	-412.776418	70.998133	433.299370	-446.761793	235.782378	198.011216	-437.699679	154.667171	264.328104	-503.384775	-129.078913	869.013674	-315.552829	32.739369	81.766548	-515.324835	32.676156	82.101524	-115.607613	
